<svg width="35" height="29" viewBox="0 0 35 29" fill="none" xmlns="http://www.w3.org/2000/svg">
<path d="M34.4878 3.87165C33.2364 4.44332 31.8874 4.81899 30.4897 4.99865C31.9199 4.13298 33.0251 2.76098 33.5452 1.11131C32.1962 1.92798 30.701 2.49965 29.1245 2.82632C27.8406 1.42165 26.0366 0.60498 23.9888 0.60498C20.1694 0.60498 17.049 3.74098 17.049 7.61199C17.049 8.16732 17.114 8.70632 17.2278 9.21266C11.4419 8.91866 6.2899 6.12565 2.86064 1.89532C2.2593 2.92432 1.918 4.13298 1.918 5.40699C1.918 7.84066 3.13693 9.99666 5.02221 11.2217C3.86829 11.2217 2.79563 10.895 1.85299 10.405C1.85299 10.405 1.85299 10.405 1.85299 10.454C1.85299 13.8513 4.25835 16.6933 7.44382 17.3303C6.85873 17.4937 6.24114 17.5753 5.6073 17.5753C5.16848 17.5753 4.72967 17.5263 4.30711 17.4447C5.18473 20.205 7.73636 22.263 10.8081 22.312C8.43521 24.2067 5.42852 25.3173 2.14554 25.3173C1.59296 25.3173 1.04037 25.2847 0.487793 25.2193C3.57575 27.212 7.24879 28.3717 11.1819 28.3717C23.9888 28.3717 31.026 17.6897 31.026 8.42866C31.026 8.11832 31.026 7.82432 31.0098 7.51399C32.375 6.53399 33.5452 5.29265 34.4878 3.87165Z" fill="black"/>
</svg>
